<svg width="306" height="68" viewBox="0 0 306 68" fill="none" xmlns="http://www.w3.org/2000/svg">
<path d="M168.856 45.4356C167.863 43.2159 166.908 40.9768 165.991 38.7192C165.113 36.4237 164.253 34.0912 163.412 31.7207C162.572 29.3123 161.789 26.8289 161.063 24.2706C160.337 21.7123 159.649 19.0596 159 16.3126H162.667C163.087 18.2695 163.603 20.3948 164.215 22.6903C164.864 24.9858 165.551 27.2999 166.277 29.6324C167.004 31.9279 167.748 34.1097 168.512 36.1794C169.276 38.2492 170.002 40.0738 170.69 41.6541C171.76 39.02 172.771 36.2544 173.727 33.3574C174.72 30.4226 175.618 27.4877 176.42 24.5528C177.261 21.6179 177.967 18.8709 178.54 16.3126H181.52C182.054 18.9088 182.723 21.6929 183.526 24.6657C184.328 27.6006 185.206 30.5355 186.161 33.4703C187.154 36.4052 188.167 39.1522 189.199 41.7106C189.886 40.2052 190.593 38.437 191.319 36.4052C192.045 34.3354 192.77 32.1537 193.496 29.8582C194.222 27.5256 194.89 25.1922 195.502 22.8596C196.151 20.5271 196.705 18.3444 197.164 16.3126H200.659C199.971 19.0967 199.265 21.7873 198.539 24.3835C197.813 26.9418 197.049 29.4252 196.247 31.8336C195.444 34.204 194.585 36.5181 193.668 38.7757C192.79 41.0333 191.834 43.2529 190.803 45.4356H187.479C186.639 43.4038 185.742 41.1462 184.786 38.6628C183.869 36.1415 182.971 33.5268 182.093 30.8176C181.252 28.1085 180.507 25.4373 179.858 22.8032C179.247 25.4373 178.502 28.1085 177.623 30.8176C176.783 33.5268 175.885 36.1415 174.93 38.6628C174.013 41.1462 173.096 43.4038 172.18 45.4356H168.856ZM215.927 45.9435C213.673 45.9435 211.705 45.6428 210.024 45.0405C208.344 44.4011 207.045 43.4223 206.128 42.1056C205.211 40.7511 204.753 39.0014 204.753 36.8567C204.753 34.8249 205.249 33.1502 206.242 31.8336C207.235 30.5169 208.649 29.5574 210.483 28.9551C212.355 28.3158 214.533 27.9956 217.015 27.9956C218.123 27.9956 219.289 28.09 220.511 28.2779C221.733 28.4657 222.593 28.6729 223.089 28.8987V27.0362C223.089 25.4179 222.879 23.9884 222.459 22.7467C222.077 21.4671 221.332 20.4706 220.224 19.7554C219.154 19.0402 217.607 18.6831 215.583 18.6831C213.749 18.6831 212.24 18.8339 211.056 19.1346C209.91 19.3983 209.031 19.6425 208.42 19.8683L207.962 16.877C208.764 16.5383 209.834 16.2562 211.17 16.0304C212.507 15.7667 214.074 15.6353 215.869 15.6353C218.467 15.6353 220.53 16.0868 222.058 16.9899C223.624 17.855 224.751 19.0967 225.439 20.7149C226.165 22.2952 226.528 24.1577 226.528 26.3025V44.6454C225.535 44.9091 224.064 45.1913 222.115 45.492C220.206 45.7927 218.143 45.9435 215.927 45.9435ZM216.442 42.9522C217.703 42.9522 218.906 42.8958 220.052 42.7829C221.198 42.67 222.211 42.5192 223.089 42.3314V31.7771C222.516 31.5514 221.733 31.3441 220.74 31.1563C219.747 30.9684 218.544 30.8741 217.13 30.8741C215.564 30.8741 214.112 31.0434 212.775 31.382C211.438 31.7207 210.349 32.323 209.509 33.1881C208.706 34.0532 208.305 35.2764 208.305 36.8567C208.305 39.0394 209.012 40.6003 210.426 41.5412C211.839 42.4822 213.845 42.9522 216.442 42.9522ZM245.425 45.9435C243.057 45.9435 241.166 45.5485 239.753 44.7583C238.339 43.9681 237.326 42.745 236.716 41.0897C236.104 39.4344 235.799 37.3082 235.799 34.712V7.62083L239.352 7V16.3126H251.099V19.2475H239.352V35.0506C239.352 37.1574 239.6 38.7757 240.097 39.9045C240.593 40.9953 241.3 41.767 242.217 42.2185C243.171 42.6321 244.317 42.8394 245.655 42.8394C246.992 42.8394 248.157 42.6886 249.151 42.3878C250.143 42.0492 250.946 41.7291 251.557 41.4283L252.302 44.3068C251.652 44.6454 250.698 45.0026 249.437 45.3792C248.176 45.7557 246.839 45.9435 245.425 45.9435ZM270.856 46C267.494 46 264.724 45.3792 262.547 44.1375C260.408 42.8579 258.822 41.0712 257.791 38.7757C256.798 36.4802 256.301 33.771 256.301 30.6483C256.301 27.5626 256.874 24.8915 258.02 22.6339C259.204 20.3763 260.77 18.6451 262.719 17.4414C264.667 16.2376 266.844 15.6353 269.251 15.6353C271.773 15.6353 273.912 16.1812 275.669 17.2721C277.427 18.3259 278.763 19.8868 279.68 21.9566C280.636 24.0263 281.113 26.5661 281.113 29.576C281.113 29.8397 281.094 30.1589 281.056 30.5354C281.056 30.8741 281.037 31.2127 280.998 31.5514H259.968C260.083 35.2385 261.018 38.042 262.776 39.9609C264.571 41.8799 267.322 42.8394 271.028 42.8394C272.785 42.8394 274.294 42.67 275.555 42.3314C276.815 41.9928 277.751 41.6541 278.362 41.3155L278.993 44.2504C278.381 44.6269 277.312 45.022 275.784 45.4356C274.294 45.8121 272.651 46 270.856 46ZM260.026 28.6729H277.503C277.503 26.5282 277.178 24.7221 276.529 23.2547C275.88 21.7493 274.943 20.6205 273.721 19.8683C272.499 19.0781 271.028 18.6831 269.309 18.6831C267.436 18.6831 265.813 19.1531 264.438 20.0941C263.101 21.035 262.07 22.2767 261.343 23.8191C260.617 25.3245 260.179 26.9418 260.026 28.6729ZM289.414 45.4356V17.6671C290.521 17.1777 291.896 16.7456 293.539 16.369C295.22 15.9554 297.13 15.7482 299.27 15.7482C300.072 15.7482 300.836 15.7861 301.562 15.8611C302.287 15.936 302.956 16.0304 303.567 16.1433C304.178 16.2561 304.656 16.3875 305 16.5383L304.255 19.5297C303.834 19.3418 303.166 19.1725 302.25 19.0217C301.333 18.8709 300.205 18.7959 298.869 18.7959C297.531 18.7959 296.328 18.9088 295.259 19.1346C294.227 19.3603 293.444 19.6046 292.908 19.8683V45.4356H289.414Z" fill="black"/>
<path d="M0 45.4275V12.5649C0 8.71023 0.881386 5.82795 2.64506 3.91985C4.44646 1.97329 7.16878 1 10.8102 1C12.2289 1 13.4553 1.11451 14.4903 1.34351C15.5253 1.57252 16.254 1.82032 16.6754 2.08779L15.9278 5.06489C15.3915 4.79742 14.7014 4.58808 13.8578 4.43511C13.0141 4.24457 12.0564 4.14886 10.9827 4.14886C8.37631 4.14886 6.47877 4.81709 5.29011 6.15267C4.10146 7.48824 3.50758 9.66382 3.50758 12.6794V15.8855H15.5253V18.8626H3.50758V45.4275H0ZM32.9509 45.9427C30.0372 45.9427 27.6994 45.4275 25.9358 44.3969C24.2107 43.3279 22.9646 41.7821 22.1982 39.7595C21.4695 37.7369 21.1056 35.2554 21.1056 32.3168V15.771H24.6132V31.5153C24.6132 34.2633 24.9007 36.4577 25.4758 38.0992C26.0508 39.7408 26.9708 40.9234 28.2358 41.6488C29.5008 42.3743 31.207 42.7366 33.3534 42.7366C34.8871 42.7366 36.3246 42.6606 37.666 42.5076C39.0074 42.3171 39.9661 42.1256 40.5411 41.9351V15.771H44.0486V44.2824C42.8223 44.6644 41.2499 45.0455 39.3335 45.4275C37.4549 45.771 35.3273 45.9427 32.9509 45.9427ZM63.3933 45.9427C61.0169 45.9427 59.1194 45.542 57.7016 44.7404C56.2829 43.9389 55.2668 42.6982 54.654 41.0191C54.0404 39.34 53.734 37.1832 53.734 34.5496V7.0687L57.2991 6.43893V15.8855H69.0868V18.8626H57.2991V34.8931C57.2991 37.0302 57.548 38.6717 58.0466 39.8168C58.5443 40.9234 59.2541 41.7061 60.1741 42.1641C61.1319 42.5836 62.2819 42.7939 63.6242 42.7939C64.9656 42.7939 66.1345 42.6409 67.1318 42.3359C68.1282 41.9924 68.9332 41.6676 69.5469 41.3626L70.2944 44.2824C69.6421 44.6259 68.6843 44.9882 67.4193 45.3702C66.1543 45.7522 64.812 45.9427 63.3933 45.9427ZM87.5888 45.9427C84.6751 45.9427 82.3364 45.4275 80.5736 44.3969C78.8486 43.3279 77.6024 41.7821 76.836 39.7595C76.1074 37.7369 75.7435 35.2554 75.7435 32.3168V15.771H79.2511V31.5153C79.2511 34.2633 79.5386 36.4577 80.1136 38.0992C80.6886 39.7408 81.6086 40.9234 82.8736 41.6488C84.1387 42.3743 85.844 42.7366 87.9913 42.7366C89.524 42.7366 90.9616 42.6606 92.3039 42.5076C93.6452 42.3171 94.6039 42.1256 95.1789 41.9351V15.771H98.6865V44.2824C97.4592 44.6644 95.8878 45.0455 93.9714 45.4275C92.0927 45.771 89.9652 45.9427 87.5888 45.9427ZM108.601 45.4275V17.2595C109.712 16.7631 111.092 16.3247 112.741 15.9427C114.427 15.5232 116.345 15.313 118.491 15.313C119.296 15.313 120.063 15.3514 120.791 15.4275C121.52 15.5035 122.19 15.5992 122.804 15.7137C123.417 15.8282 123.896 15.9615 124.241 16.1145L123.494 19.1488C123.072 18.9583 122.401 18.7866 121.481 18.6336C120.561 18.4806 119.43 18.4046 118.089 18.4046C116.747 18.4046 115.54 18.5191 114.466 18.7481C113.431 18.9771 112.645 19.2249 112.109 19.4924V45.4275H108.601ZM142.707 46C139.334 46 136.555 45.3702 134.37 44.1107C132.223 42.8127 130.632 41.0003 129.597 38.6717C128.601 36.3432 128.102 33.5951 128.102 30.4275C128.102 27.2974 128.677 24.5878 129.827 22.2977C131.016 20.0076 132.587 18.2516 134.542 17.0305C136.497 15.8095 138.682 15.1985 141.097 15.1985C143.627 15.1985 145.774 15.7522 147.537 16.8588C149.301 17.9278 150.642 19.5112 151.562 21.6107C152.521 23.7102 153 26.2866 153 29.3397C153 29.6072 152.981 29.931 152.943 30.313C152.943 30.6565 152.924 31 152.885 31.3435H131.782C131.897 35.0837 132.836 37.9275 134.6 39.874C136.401 41.8206 139.161 42.7939 142.88 42.7939C144.643 42.7939 146.157 42.6221 147.422 42.2786C148.687 41.9351 149.626 41.5916 150.24 41.2481L150.872 44.2252C150.259 44.6072 149.186 45.0079 147.652 45.4275C146.157 45.8094 144.509 46 142.707 46ZM131.84 28.4237H149.377C149.377 26.2481 149.051 24.416 148.4 22.9275C147.749 21.4005 146.809 20.2554 145.582 19.4924C144.356 18.6908 142.88 18.2901 141.155 18.2901C139.276 18.2901 137.647 18.7669 136.267 19.7214C134.926 20.6759 133.891 21.9354 133.162 23.5C132.433 25.027 131.993 26.6676 131.84 28.4237Z" fill="black"/>
<mask id="mask0_384_30" style="mask-type:alpha" maskUnits="userSpaceOnUse" x="0" y="0" width="306" height="46">
<path d="M169.388 44.6199C168.391 42.3585 167.433 40.0774 166.513 37.7774C165.631 35.4388 164.769 33.0624 163.925 30.6474C163.081 28.1938 162.296 25.6638 161.568 23.0574C160.839 20.4511 160.149 17.7486 159.498 14.95H163.178C163.599 16.9436 164.116 19.1088 164.73 21.4474C165.381 23.7861 166.071 26.1436 166.8 28.5199C167.529 30.8585 168.276 33.0813 169.043 35.1899C169.809 37.2985 170.538 39.1574 171.228 40.7674C172.301 38.0838 173.316 35.2663 174.275 32.3149C175.271 29.3249 176.173 26.3349 176.978 23.3449C177.821 20.3549 178.53 17.5563 179.105 14.95H182.095C182.631 17.5949 183.302 20.4313 184.107 23.4599C184.912 26.4499 185.794 29.4399 186.752 32.4299C187.749 35.4199 188.765 38.2185 189.8 40.8249C190.49 39.2913 191.199 37.4899 191.927 35.4199C192.656 33.3113 193.384 31.0885 194.112 28.7499C194.841 26.3736 195.511 23.9963 196.125 21.6199C196.776 19.2436 197.332 17.02 197.792 14.95H201.3C200.61 17.7863 199.901 20.5274 199.172 23.1724C198.444 25.7788 197.677 28.3088 196.872 30.7624C196.067 33.1774 195.205 35.5349 194.285 37.8349C193.404 40.1349 192.445 42.3962 191.41 44.6199H188.075C187.231 42.5499 186.331 40.2499 185.372 37.7199C184.452 35.1513 183.551 32.4874 182.67 29.7274C181.826 26.9674 181.079 24.2461 180.427 21.5624C179.814 24.2461 179.066 26.9674 178.185 29.7274C177.341 32.4874 176.441 35.1513 175.483 37.7199C174.563 40.2499 173.643 42.5499 172.723 44.6199H169.388ZM216.62 45.1374C214.359 45.1374 212.384 44.831 210.698 44.2174C209.011 43.566 207.708 42.5687 206.788 41.2274C205.868 39.8474 205.408 38.0649 205.408 35.8799C205.408 33.8099 205.906 32.1038 206.903 30.7624C207.899 29.421 209.318 28.4436 211.158 27.8299C213.036 27.1786 215.221 26.8524 217.713 26.8524C218.824 26.8524 219.994 26.9486 221.22 27.1399C222.446 27.3313 223.309 27.5424 223.808 27.7724V25.8749C223.808 24.2263 223.596 22.7699 223.175 21.5049C222.791 20.2013 222.044 19.1861 220.933 18.4575C219.859 17.7288 218.306 17.365 216.275 17.365C214.435 17.365 212.921 17.5186 211.733 17.8249C210.583 18.0936 209.701 18.3424 209.088 18.5724L208.628 15.525C209.433 15.18 210.506 14.8925 211.848 14.6625C213.189 14.3938 214.761 14.26 216.563 14.26C219.169 14.26 221.239 14.72 222.773 15.64C224.344 16.5213 225.475 17.7863 226.165 19.4349C226.894 21.0449 227.257 22.9424 227.257 25.1274V43.8149C226.261 44.0835 224.785 44.371 222.83 44.6774C220.914 44.9837 218.844 45.1374 216.62 45.1374ZM217.138 42.0899C218.403 42.0899 219.61 42.0324 220.76 41.9174C221.91 41.8024 222.926 41.6488 223.808 41.4574V30.7049C223.233 30.4749 222.446 30.2638 221.45 30.0724C220.454 29.881 219.246 29.7849 217.828 29.7849C216.256 29.7849 214.799 29.9574 213.458 30.3024C212.116 30.6474 211.024 31.261 210.18 32.1424C209.375 33.0238 208.973 34.2699 208.973 35.8799C208.973 38.1035 209.681 39.6938 211.1 40.6524C212.519 41.611 214.531 42.0899 217.138 42.0899ZM246.22 45.1374C243.844 45.1374 241.946 44.7349 240.528 43.9299C239.11 43.1249 238.094 41.8787 237.481 40.1924C236.867 38.506 236.561 36.3399 236.561 33.6949V6.09498L240.126 5.46249V14.95H251.913V17.94H240.126V34.0399C240.126 36.1863 240.375 37.8349 240.873 38.9849C241.371 40.0963 242.081 40.8824 243.001 41.3424C243.959 41.7637 245.109 41.9749 246.451 41.9749C247.792 41.9749 248.961 41.8213 249.958 41.5149C250.955 41.1699 251.76 40.8437 252.373 40.5374L253.121 43.4699C252.468 43.8149 251.511 44.1787 250.246 44.5624C248.981 44.946 247.639 45.1374 246.22 45.1374ZM271.738 45.1949C268.365 45.1949 265.586 44.5624 263.401 43.2974C261.254 41.9938 259.663 40.1735 258.628 37.8349C257.632 35.4963 257.133 32.7363 257.133 29.5549C257.133 26.4113 257.708 23.6899 258.858 21.3899C260.047 19.0899 261.618 17.3263 263.573 16.1C265.528 14.8736 267.713 14.26 270.128 14.26C272.658 14.26 274.804 14.8161 276.568 15.9275C278.332 17.0011 279.673 18.5913 280.593 20.6999C281.552 22.8086 282.031 25.3961 282.031 28.4624C282.031 28.7311 282.012 29.0563 281.973 29.4399C281.973 29.7849 281.954 30.1299 281.916 30.4749H260.813C260.928 34.2313 261.867 37.0874 263.631 39.0424C265.432 40.9974 268.192 41.9749 271.911 41.9749C273.674 41.9749 275.188 41.8024 276.453 41.4574C277.718 41.1124 278.657 40.7674 279.271 40.4224L279.903 43.4124C279.289 43.796 278.217 44.1985 276.683 44.6199C275.188 45.0035 273.54 45.1949 271.738 45.1949ZM260.871 27.5424H278.408C278.408 25.3574 278.082 23.5174 277.431 22.0224C276.779 20.4888 275.839 19.3388 274.613 18.5724C273.387 17.7674 271.911 17.365 270.186 17.365C268.307 17.365 266.678 17.8438 265.298 18.8025C263.957 19.7611 262.922 21.0261 262.193 22.5974C261.465 24.1311 261.024 25.7788 260.871 27.5424ZM290.36 44.6199V16.3299C291.471 15.8313 292.851 15.3911 294.5 15.0075C296.186 14.5861 298.103 14.375 300.25 14.375C301.055 14.375 301.821 14.4136 302.55 14.49C303.278 14.5663 303.949 14.6625 304.562 14.7775C305.175 14.8925 305.655 15.0263 306 15.18L305.252 18.2274C304.83 18.0361 304.16 17.8636 303.24 17.71C302.32 17.5563 301.189 17.48 299.847 17.48C298.505 17.48 297.298 17.5949 296.225 17.8249C295.19 18.0549 294.404 18.3038 293.867 18.5724V44.6199H290.36Z" fill="black"/>
<path d="M0.445312 44.6199V11.615C0.445312 7.74362 1.32668 4.84886 3.09031 2.9325C4.89167 0.977504 7.61392 0 11.2553 0C12.6739 0 13.9003 0.115002 14.9353 0.345001C15.9703 0.575001 16.6989 0.823868 17.1203 1.0925L16.3728 4.08249C15.8364 3.81386 15.1464 3.60362 14.3028 3.44999C13.4591 3.25862 12.5014 3.16249 11.4278 3.16249C8.82142 3.16249 6.92393 3.83362 5.7353 5.17498C4.54667 6.51634 3.95281 8.70134 3.95281 11.73V14.95H15.9703V17.9399H3.95281V44.6199H0.445312ZM33.3954 45.1374C30.4818 45.1374 28.1441 44.6199 26.3804 43.5849C24.6554 42.5112 23.4093 40.9588 22.6429 38.9274C21.9143 36.896 21.5504 34.4038 21.5504 31.4524V14.835H25.0579V30.6474C25.0579 33.4074 25.3454 35.6113 25.9204 37.2599C26.4954 38.9085 27.4154 40.0963 28.6804 40.8249C29.9454 41.5535 31.6516 41.9174 33.7979 41.9174C35.3316 41.9174 36.769 41.841 38.1104 41.6874C39.4518 41.496 40.4104 41.3038 40.9854 41.1124V14.835H44.4929V43.4699C43.2665 43.8535 41.6942 44.2362 39.7779 44.6199C37.8993 44.9649 35.7718 45.1374 33.3954 45.1374ZM63.8371 45.1374C61.4607 45.1374 59.5632 44.7349 58.1455 43.9299C56.7269 43.1249 55.7107 41.8787 55.098 40.1924C54.4844 38.506 54.178 36.3399 54.178 33.6949V6.09498L57.743 5.46249V14.95H69.5304V17.9399H57.743V34.0399C57.743 36.1863 57.9919 37.8349 58.4905 38.9849C58.9882 40.0962 59.698 40.8824 60.618 41.3424C61.5757 41.7637 62.7257 41.9749 64.068 41.9749C65.4093 41.9749 66.5782 41.8213 67.5755 41.5149C68.5718 41.1699 69.3768 40.8437 69.9905 40.5374L70.738 43.4699C70.0857 43.8149 69.128 44.1787 67.863 44.5624C66.598 44.946 65.2557 45.1374 63.8371 45.1374ZM88.0319 45.1374C85.1183 45.1374 82.7797 44.6199 81.0169 43.5849C79.292 42.5112 78.0458 40.9588 77.2795 38.9274C76.5508 36.896 76.187 34.4038 76.187 31.4524V14.835H79.6945V30.6474C79.6945 33.4074 79.982 35.6113 80.557 37.2599C81.132 38.9085 82.0519 40.0963 83.3169 40.8249C84.5819 41.5535 86.2872 41.9174 88.4344 41.9174C89.9672 41.9174 91.4046 41.841 92.7469 41.6874C94.0883 41.496 95.0469 41.3038 95.6219 41.1124V14.835H99.1294V43.4699C97.9021 43.8535 96.3308 44.2362 94.4144 44.6199C92.5358 44.9649 90.4083 45.1374 88.0319 45.1374ZM109.044 44.6199V16.3299C110.155 15.8313 111.535 15.3911 113.184 15.0075C114.87 14.5861 116.787 14.375 118.934 14.375C119.739 14.375 120.505 14.4136 121.234 14.49C121.962 14.5663 122.632 14.6625 123.246 14.7775C123.86 14.8925 124.339 15.0263 124.684 15.18L123.936 18.2274C123.515 18.0361 122.844 17.8636 121.924 17.71C121.004 17.5563 119.872 17.48 118.531 17.48C117.19 17.48 115.982 17.5949 114.909 17.8249C113.874 18.0549 113.087 18.3038 112.551 18.5724V44.6199H109.044ZM143.149 45.1949C139.775 45.1949 136.997 44.5624 134.812 43.2974C132.665 41.9938 131.074 40.1735 130.039 37.8349C129.043 35.4963 128.544 32.7363 128.544 29.5549C128.544 26.4113 129.119 23.6899 130.269 21.3899C131.458 19.0899 133.029 17.3263 134.984 16.1C136.939 14.8736 139.124 14.26 141.539 14.26C144.069 14.26 146.215 14.8161 147.979 15.9275C149.743 17.0011 151.084 18.5913 152.004 20.6999C152.963 22.8086 153.442 25.3961 153.442 28.4624C153.442 28.7311 153.423 29.0563 153.384 29.4399C153.384 29.7849 153.365 30.1299 153.327 30.4749H132.224C132.339 34.2313 133.278 37.0874 135.042 39.0424C136.843 40.9974 139.603 41.9749 143.322 41.9749C145.085 41.9749 146.599 41.8024 147.864 41.4574C149.129 41.1124 150.068 40.7674 150.682 40.4224L151.314 43.4124C150.7 43.796 149.628 44.1985 148.094 44.6199C146.599 45.0035 144.95 45.1949 143.149 45.1949ZM132.282 27.5424H149.819C149.819 25.3574 149.493 23.5174 148.842 22.0224C148.19 20.4888 147.25 19.3388 146.024 18.5724C144.798 17.7674 143.322 17.365 141.597 17.365C139.718 17.365 138.089 17.8438 136.709 18.8025C135.368 19.7611 134.333 21.0261 133.604 22.5974C132.876 24.1311 132.435 25.7788 132.282 27.5424Z" fill="black"/>
</mask>
<g mask="url(#mask0_384_30)">
<path d="M20.2073 31.5926C-8.09335 26.202 -38.6401 53.3383 -38.6401 53.3383H331.353C331.353 53.3383 297.824 41.9246 277.896 33.8387C253.068 23.7636 234.009 33.1505 207.531 38.3308C186.867 42.3738 187.316 40.5769 161.262 36.0847C122.792 29.4516 110.949 31.5926 85.3439 38.3308C58.6388 45.3584 45.2054 36.3543 20.2073 31.5926Z" fill="#00FFF3"/>
</g>
<path d="M242.038 67.8665C241.532 67.8665 241.001 67.8439 240.447 67.7997C239.892 67.7555 239.41 67.6829 239 67.5828V56.4339C239.386 56.3229 239.856 56.2445 240.41 56.2003C240.965 56.156 241.495 56.1335 242.002 56.1335C243.4 56.1335 244.612 56.3563 245.636 56.8011C246.673 57.235 247.474 57.8859 248.041 58.7538C248.62 59.6217 248.909 60.7007 248.909 61.9916C248.909 63.2826 248.62 64.3674 248.041 65.2462C247.474 66.114 246.679 66.7708 245.654 67.2156C244.63 67.6495 243.424 67.8665 242.038 67.8665ZM242.146 66.9319C243.955 66.9319 245.329 66.4921 246.269 65.6133C247.209 64.7346 247.68 63.5271 247.68 61.9916C247.68 60.4453 247.209 59.2378 246.269 58.37C245.329 57.5021 243.937 57.0681 242.092 57.0681C241.61 57.0681 241.2 57.0848 240.863 57.1182C240.537 57.1407 240.302 57.1624 240.157 57.185V66.815C240.302 66.8375 240.531 66.8651 240.844 66.8985C241.158 66.921 241.592 66.9319 242.146 66.9319ZM251.679 67.783V56.217H252.836V67.783H251.679ZM261.409 68C260.264 68 259.252 67.7605 258.371 67.2823C257.503 66.8042 256.829 66.1199 256.346 65.2295C255.864 64.3282 255.622 63.2492 255.622 61.9916C255.622 60.7458 255.882 59.6776 256.4 58.7872C256.919 57.8859 257.624 57.1958 258.516 56.7177C259.408 56.2395 260.403 56 261.499 56C262.078 56 262.591 56.0392 263.036 56.1168C263.495 56.1836 263.893 56.2779 264.23 56.4005C264.568 56.5115 264.845 56.6342 265.062 56.7677L264.682 57.669C264.356 57.4687 263.911 57.3018 263.344 57.1683C262.778 57.0239 262.163 56.9513 261.499 56.9513C260.608 56.9513 259.806 57.1516 259.094 57.5521C258.395 57.9527 257.841 58.531 257.431 59.2879C257.033 60.0331 256.834 60.9343 256.834 61.9916C256.834 63.0156 257.015 63.911 257.376 64.6787C257.738 65.4356 258.269 66.0197 258.968 66.4312C259.668 66.8426 260.523 67.0487 261.535 67.0487C262.114 67.0487 262.615 67.0153 263.036 66.9485C263.459 66.8818 263.766 66.8209 263.959 66.7649V62.3421H265.116V67.4325C264.827 67.5435 264.356 67.6662 263.705 67.7997C263.054 67.9332 262.29 68 261.409 68ZM268.014 67.783V56.217H269.171V67.783H268.014ZM275.194 67.783V57.1516H271.162V56.217H280.366V57.1516H276.352V67.783H275.194ZM279.953 67.783C280.567 66.2584 281.14 64.8456 281.671 63.5438C282.213 62.2312 282.755 60.9794 283.298 59.7886C283.84 58.5869 284.413 57.3961 285.016 56.217H286.028C286.474 57.0957 286.896 57.9636 287.294 58.8206C287.704 59.6776 288.102 60.5622 288.488 61.4743C288.885 62.3755 289.295 63.3435 289.717 64.3783C290.151 65.4131 290.615 66.548 291.11 67.783H289.844C289.614 67.2264 289.392 66.6873 289.175 66.1641C288.97 65.63 288.771 65.1068 288.578 64.5953H282.43C282.225 65.1068 282.014 65.63 281.797 66.1641C281.592 66.6873 281.381 67.2264 281.164 67.783H279.953ZM282.774 63.6606H288.216C287.975 63.0598 287.74 62.4982 287.511 61.975C287.294 61.4409 287.077 60.9294 286.86 60.4395C286.643 59.9497 286.42 59.4606 286.191 58.9708C285.974 58.4809 285.739 57.9694 285.486 57.4353C285.233 57.9694 284.991 58.4809 284.763 58.9708C284.546 59.4606 284.329 59.9555 284.112 60.4562C283.906 60.946 283.689 61.4517 283.461 61.975C283.244 62.4982 283.014 63.0598 282.774 63.6606ZM292.948 67.783V56.217H294.105V66.8317H300V67.783H292.948Z" fill="#070000"/>
</svg>
